<svg width="6" height="12" viewBox="0 0 6 12" fill="none" xmlns="http://www.w3.org/2000/svg">
<path d="M2.9998 11.4002C3.66255 11.4002 4.1998 10.863 4.1998 10.2002C4.1998 9.5375 3.66255 9.00024 2.9998 9.00024C2.33706 9.00024 1.7998 9.5375 1.7998 10.2002C1.7998 10.863 2.33706 11.4002 2.9998 11.4002Z" fill="#DD88CF"/>
<path fill-rule="evenodd" clip-rule="evenodd" d="M3.00019 9.29237C2.49882 9.29237 2.09238 9.69881 2.09238 10.2002C2.09238 10.7015 2.49882 11.108 3.00019 11.108C3.50155 11.108 3.90799 10.7015 3.90799 10.2002C3.90799 9.69881 3.50155 9.29237 3.00019 9.29237ZM1.5 10.2002C1.5 9.37177 2.17157 8.7002 3 8.7002C3.82842 8.7002 4.5 9.37177 4.5 10.2002C4.5 11.0286 3.82842 11.7002 3 11.7002C2.17157 11.7002 1.5 11.0286 1.5 10.2002Z" fill="white"/>
<path fill-rule="evenodd" clip-rule="evenodd" d="M2.69971 6.58545H3.29971V9.58545H2.69971V6.58545Z" fill="#DD88CF"/>
<path d="M3 6.90015C4.65684 6.90015 6 5.55702 6 3.90015C6 2.2433 4.65684 0.900146 3 0.900146C1.34315 0.900146 0 2.2433 0 3.90015C0 5.55702 1.34315 6.90015 3 6.90015Z" fill="#DD88CF"/>
<path d="M3.00009 4.80024C3.49714 4.80024 3.9001 4.39728 3.9001 3.90024C3.9001 3.40319 3.49714 3.00024 3.00009 3.00024C2.50304 3.00024 2.1001 3.40319 2.1001 3.90024C2.1001 4.39728 2.50304 4.80024 3.00009 4.80024Z" fill="white"/>
</svg>
